<mxfile host="app.diagrams.net" modified="2023-10-25T15:53:42.346Z" agent="Mozilla/5.0 (Windows NT 10.0; Win64; x64) AppleWebKit/537.36 (KHTML, like Gecko) Chrome/118.0.0.0 Safari/537.36 Edg/118.0.2088.61" etag="APWgY_UqE6QKgvDIP5vW" version="22.0.8" type="device">
  <diagram name="Página-1" id="dEJGY9LAbtKT8eE1fh9m">
    <mxGraphModel dx="996" dy="569" grid="1" gridSize="10" guides="1" tooltips="1" connect="1" arrows="1" fold="1" page="1" pageScale="1" pageWidth="827" pageHeight="1169" math="0" shadow="0">
      <root>
        <mxCell id="0" />
        <mxCell id="1" parent="0" />
        <mxCell id="2c84H_mFhP0OiNRYd1Ep-4" value="" style="endArrow=none;html=1;rounded=0;" edge="1" parent="1" source="2c84H_mFhP0OiNRYd1Ep-23">
          <mxGeometry width="50" height="50" relative="1" as="geometry">
            <mxPoint x="160" y="120" as="sourcePoint" />
            <mxPoint x="650" y="120" as="targetPoint" />
          </mxGeometry>
        </mxCell>
        <mxCell id="2c84H_mFhP0OiNRYd1Ep-6" value="ID" style="ellipse;whiteSpace=wrap;html=1;" vertex="1" parent="1">
          <mxGeometry x="105" y="250" width="70" height="40" as="geometry" />
        </mxCell>
        <mxCell id="2c84H_mFhP0OiNRYd1Ep-7" value="NOME" style="ellipse;whiteSpace=wrap;html=1;" vertex="1" parent="1">
          <mxGeometry x="105" y="300" width="70" height="40" as="geometry" />
        </mxCell>
        <mxCell id="2c84H_mFhP0OiNRYd1Ep-8" value="SALÁRIO" style="ellipse;whiteSpace=wrap;html=1;" vertex="1" parent="1">
          <mxGeometry x="105" y="350" width="70" height="40" as="geometry" />
        </mxCell>
        <mxCell id="2c84H_mFhP0OiNRYd1Ep-9" value="ID" style="ellipse;whiteSpace=wrap;html=1;" vertex="1" parent="1">
          <mxGeometry x="370" y="250" width="70" height="40" as="geometry" />
        </mxCell>
        <mxCell id="2c84H_mFhP0OiNRYd1Ep-10" value="NOME" style="ellipse;whiteSpace=wrap;html=1;" vertex="1" parent="1">
          <mxGeometry x="370" y="300" width="70" height="40" as="geometry" />
        </mxCell>
        <mxCell id="2c84H_mFhP0OiNRYd1Ep-11" value="ID" style="ellipse;whiteSpace=wrap;html=1;" vertex="1" parent="1">
          <mxGeometry x="605" y="250" width="70" height="40" as="geometry" />
        </mxCell>
        <mxCell id="2c84H_mFhP0OiNRYd1Ep-12" value="NOME" style="ellipse;whiteSpace=wrap;html=1;" vertex="1" parent="1">
          <mxGeometry x="605" y="300" width="70" height="40" as="geometry" />
        </mxCell>
        <mxCell id="2c84H_mFhP0OiNRYd1Ep-13" value="DEADLINE" style="ellipse;whiteSpace=wrap;html=1;" vertex="1" parent="1">
          <mxGeometry x="605" y="350" width="70" height="40" as="geometry" />
        </mxCell>
        <mxCell id="2c84H_mFhP0OiNRYd1Ep-21" value="" style="endArrow=none;html=1;rounded=0;entryX=0.5;entryY=0;entryDx=0;entryDy=0;" edge="1" parent="1">
          <mxGeometry width="50" height="50" relative="1" as="geometry">
            <mxPoint x="160" y="190" as="sourcePoint" />
            <mxPoint x="160" y="120" as="targetPoint" />
          </mxGeometry>
        </mxCell>
        <mxCell id="2c84H_mFhP0OiNRYd1Ep-22" value="" style="endArrow=none;html=1;rounded=0;entryX=0.5;entryY=0;entryDx=0;entryDy=0;" edge="1" parent="1">
          <mxGeometry width="50" height="50" relative="1" as="geometry">
            <mxPoint x="650" y="190" as="sourcePoint" />
            <mxPoint x="650" y="120" as="targetPoint" />
          </mxGeometry>
        </mxCell>
        <mxCell id="2c84H_mFhP0OiNRYd1Ep-24" value="" style="endArrow=none;html=1;rounded=0;" edge="1" parent="1" target="2c84H_mFhP0OiNRYd1Ep-23">
          <mxGeometry width="50" height="50" relative="1" as="geometry">
            <mxPoint x="160" y="120" as="sourcePoint" />
            <mxPoint x="650" y="120" as="targetPoint" />
          </mxGeometry>
        </mxCell>
        <mxCell id="2c84H_mFhP0OiNRYd1Ep-23" value="TRABALHA" style="rhombus;whiteSpace=wrap;html=1;" vertex="1" parent="1">
          <mxGeometry x="350" y="85" width="115" height="70" as="geometry" />
        </mxCell>
        <mxCell id="2c84H_mFhP0OiNRYd1Ep-25" value="" style="endArrow=none;html=1;rounded=0;" edge="1" parent="1">
          <mxGeometry width="50" height="50" relative="1" as="geometry">
            <mxPoint x="200" y="200" as="sourcePoint" />
            <mxPoint x="340" y="200" as="targetPoint" />
          </mxGeometry>
        </mxCell>
        <mxCell id="2c84H_mFhP0OiNRYd1Ep-26" value="TRABALHA" style="rhombus;whiteSpace=wrap;html=1;" vertex="1" parent="1">
          <mxGeometry x="220" y="165" width="100" height="70" as="geometry" />
        </mxCell>
        <mxCell id="2c84H_mFhP0OiNRYd1Ep-27" value="" style="endArrow=none;html=1;rounded=0;" edge="1" parent="1" source="2c84H_mFhP0OiNRYd1Ep-30">
          <mxGeometry width="50" height="50" relative="1" as="geometry">
            <mxPoint x="162.5" y="41" as="sourcePoint" />
            <mxPoint x="652.5" y="41" as="targetPoint" />
          </mxGeometry>
        </mxCell>
        <mxCell id="2c84H_mFhP0OiNRYd1Ep-28" value="" style="endArrow=none;html=1;rounded=0;entryX=0.5;entryY=0;entryDx=0;entryDy=0;" edge="1" parent="1">
          <mxGeometry width="50" height="50" relative="1" as="geometry">
            <mxPoint x="160.5" y="120" as="sourcePoint" />
            <mxPoint x="160" y="41" as="targetPoint" />
          </mxGeometry>
        </mxCell>
        <mxCell id="2c84H_mFhP0OiNRYd1Ep-29" value="" style="endArrow=none;html=1;rounded=0;" edge="1" parent="1" target="2c84H_mFhP0OiNRYd1Ep-30">
          <mxGeometry width="50" height="50" relative="1" as="geometry">
            <mxPoint x="162.5" y="41" as="sourcePoint" />
            <mxPoint x="652.5" y="41" as="targetPoint" />
          </mxGeometry>
        </mxCell>
        <mxCell id="2c84H_mFhP0OiNRYd1Ep-30" value="COORDENA" style="rhombus;whiteSpace=wrap;html=1;" vertex="1" parent="1">
          <mxGeometry x="352.5" y="6" width="115" height="70" as="geometry" />
        </mxCell>
        <mxCell id="2c84H_mFhP0OiNRYd1Ep-31" value="" style="endArrow=none;html=1;rounded=0;entryX=0.5;entryY=0;entryDx=0;entryDy=0;" edge="1" parent="1">
          <mxGeometry width="50" height="50" relative="1" as="geometry">
            <mxPoint x="650.5" y="119" as="sourcePoint" />
            <mxPoint x="650" y="40" as="targetPoint" />
          </mxGeometry>
        </mxCell>
        <mxCell id="2c84H_mFhP0OiNRYd1Ep-1" value="FUNCIONÁRIO" style="rounded=0;whiteSpace=wrap;html=1;" vertex="1" parent="1">
          <mxGeometry x="80" y="180" width="120" height="50" as="geometry" />
        </mxCell>
        <mxCell id="2c84H_mFhP0OiNRYd1Ep-3" value="PROJETO" style="rounded=0;whiteSpace=wrap;html=1;" vertex="1" parent="1">
          <mxGeometry x="580" y="180" width="120" height="50" as="geometry" />
        </mxCell>
        <mxCell id="2c84H_mFhP0OiNRYd1Ep-32" value="" style="endArrow=none;html=1;rounded=0;entryX=0.5;entryY=0;entryDx=0;entryDy=0;exitX=0;exitY=0.5;exitDx=0;exitDy=0;" edge="1" parent="1" source="2c84H_mFhP0OiNRYd1Ep-8">
          <mxGeometry width="50" height="50" relative="1" as="geometry">
            <mxPoint x="105" y="300" as="sourcePoint" />
            <mxPoint x="105" y="230" as="targetPoint" />
          </mxGeometry>
        </mxCell>
        <mxCell id="2c84H_mFhP0OiNRYd1Ep-33" value="" style="endArrow=none;html=1;rounded=0;entryX=0.5;entryY=0;entryDx=0;entryDy=0;exitX=0;exitY=0.5;exitDx=0;exitDy=0;" edge="1" parent="1">
          <mxGeometry width="50" height="50" relative="1" as="geometry">
            <mxPoint x="604" y="370" as="sourcePoint" />
            <mxPoint x="604" y="230" as="targetPoint" />
          </mxGeometry>
        </mxCell>
        <mxCell id="2c84H_mFhP0OiNRYd1Ep-34" value="" style="endArrow=none;html=1;rounded=0;entryX=0.5;entryY=0;entryDx=0;entryDy=0;exitX=0;exitY=0.5;exitDx=0;exitDy=0;" edge="1" parent="1">
          <mxGeometry width="50" height="50" relative="1" as="geometry">
            <mxPoint x="370" y="320" as="sourcePoint" />
            <mxPoint x="370" y="180" as="targetPoint" />
          </mxGeometry>
        </mxCell>
        <mxCell id="2c84H_mFhP0OiNRYd1Ep-2" value="DEPTO" style="rounded=0;whiteSpace=wrap;html=1;" vertex="1" parent="1">
          <mxGeometry x="345" y="175" width="120" height="50" as="geometry" />
        </mxCell>
        <mxCell id="2c84H_mFhP0OiNRYd1Ep-35" value="N" style="text;html=1;strokeColor=none;fillColor=none;align=center;verticalAlign=middle;whiteSpace=wrap;rounded=0;" vertex="1" parent="1">
          <mxGeometry x="160" y="10" width="60" height="30" as="geometry" />
        </mxCell>
        <mxCell id="2c84H_mFhP0OiNRYd1Ep-36" value="N" style="text;html=1;strokeColor=none;fillColor=none;align=center;verticalAlign=middle;whiteSpace=wrap;rounded=0;" vertex="1" parent="1">
          <mxGeometry x="590" y="10" width="60" height="30" as="geometry" />
        </mxCell>
        <mxCell id="2c84H_mFhP0OiNRYd1Ep-37" value="N" style="text;html=1;strokeColor=none;fillColor=none;align=center;verticalAlign=middle;whiteSpace=wrap;rounded=0;" vertex="1" parent="1">
          <mxGeometry x="182" y="175" width="60" height="30" as="geometry" />
        </mxCell>
        <mxCell id="2c84H_mFhP0OiNRYd1Ep-38" value="1" style="text;html=1;strokeColor=none;fillColor=none;align=center;verticalAlign=middle;whiteSpace=wrap;rounded=0;" vertex="1" parent="1">
          <mxGeometry x="300" y="175" width="60" height="30" as="geometry" />
        </mxCell>
        <mxCell id="2c84H_mFhP0OiNRYd1Ep-39" value="1" style="text;html=1;strokeColor=none;fillColor=none;align=center;verticalAlign=middle;whiteSpace=wrap;rounded=0;" vertex="1" parent="1">
          <mxGeometry x="160" y="90" width="60" height="30" as="geometry" />
        </mxCell>
        <mxCell id="2c84H_mFhP0OiNRYd1Ep-40" value="1" style="text;html=1;strokeColor=none;fillColor=none;align=center;verticalAlign=middle;whiteSpace=wrap;rounded=0;" vertex="1" parent="1">
          <mxGeometry x="590" y="90" width="60" height="30" as="geometry" />
        </mxCell>
      </root>
    </mxGraphModel>
  </diagram>
</mxfile>
